inDegrees=no
num_controls=7
num_derivatives=13
num_iterations=115
num_multipliers=7
num_parameters=0
num_slacks=7
num_states=26
objective=5.409929
objective_accelerations=0.373091
objective_balance=0.032762
objective_effort=0.395223
objective_height=4.511866
objective_ligament=0.096988
solver_duration=1240.464931
status=Solve_Succeeded
success=true
DataType=double
version=3
OpenSimVersion=4.4-2022-07-23-0e9fedc
endheader
time	/jointset/ground_pelvis/pelvis_tilt/value	/jointset/ground_pelvis/pelvis_tx/value	/jointset/ground_pelvis/pelvis_ty/value	/jointset/hip_l/hip_flexion_l/value	/jointset/hip_l/hip_adduction_l/value	/jointset/hip_l/hip_rotation_l/value	/jointset/back/lumbar_extension/value	/jointset/patellofemoral_l/patellar_flexion_l/value	/jointset/knee_l/knee_flexion_l/value	/jointset/knee_l/knee_adduction_l/value	/jointset/knee_l/knee_rotation_l/value	/jointset/ankle_l/ankle_angle_l/value	/jointset/subtalar_l/subtalar_angle_l/value	/jointset/ground_pelvis/pelvis_tilt/speed	/jointset/ground_pelvis/pelvis_tx/speed	/jointset/ground_pelvis/pelvis_ty/speed	/jointset/hip_l/hip_flexion_l/speed	/jointset/hip_l/hip_adduction_l/speed	/jointset/hip_l/hip_rotation_l/speed	/jointset/back/lumbar_extension/speed	/jointset/patellofemoral_l/patellar_flexion_l/speed	/jointset/knee_l/knee_flexion_l/speed	/jointset/knee_l/knee_adduction_l/speed	/jointset/knee_l/knee_rotation_l/speed	/jointset/ankle_l/ankle_angle_l/speed	/jointset/subtalar_l/subtalar_angle_l/speed	/forceset/tau_hip_flexion_l	/forceset/tau_hip_adduction_l	/forceset/tau_hip_rotation_l	/forceset/tau_knee_flexion_l	/forceset/tau_ankle_angle_l	/forceset/tau_subtalar_angle_l	/forceset/tau_lumbar_extension	lambda_cid13_p0	lambda_cid13_p1	lambda_cid13_p2	lambda_cid13_p3	lambda_cid13_p4	lambda_cid13_p5	lambda_cid14_p0	/jointset/ground_pelvis/pelvis_tilt/accel	/jointset/ground_pelvis/pelvis_tx/accel	/jointset/ground_pelvis/pelvis_ty/accel	/jointset/hip_l/hip_flexion_l/accel	/jointset/hip_l/hip_adduction_l/accel	/jointset/hip_l/hip_rotation_l/accel	/jointset/back/lumbar_extension/accel	/jointset/patellofemoral_l/patellar_flexion_l/accel	/jointset/knee_l/knee_flexion_l/accel	/jointset/knee_l/knee_adduction_l/accel	/jointset/knee_l/knee_rotation_l/accel	/jointset/ankle_l/ankle_angle_l/accel	/jointset/subtalar_l/subtalar_angle_l/accel	gamma_cid13_p0	gamma_cid13_p1	gamma_cid13_p2	gamma_cid13_p3	gamma_cid13_p4	gamma_cid13_p5	gamma_cid14_p0
0	-0.03682244606328908	0.05667746499596896	0.9203415959877603	0.3085811930696054	-0.2956403860887046	-0.3016055762765601	-0.3879500408040475	0.2499276582270939	0.249927658227084	-0.1745329031473727	-0.174531297959454	-0.0008036543073733089	0.0004376752560865749	0	0	0	0	0	0	0	0	0	0	0	0	0	0.05510379289024666	-0.01823106896405363	-0.01999288919717739	-0.2417090697600738	0.2107982597605202	-0.03714423561316512	0.02287806842043393	22.78319547208037	9.411264057460619	1.165086936552153	-0.8158213058970851	-637.532821057053	-53.30556640834509	-23.1969425527439	-0.3193608973177203	-1.498381969558245	-0.684153232760793	6.823447583173271	-0.6414434679121438	2.682112886432254	-6.439560640077579	7.676699812764487	7.676699812764066	1.140972633343016	-0.06730897517531478	1.6382510958289	-0.1311360618164805	-5.221374444439868e-09	7.387078290463695e-08	5.019600714802906e-08	-1.448157645681429e-09	4.428696963823375e-08	-1.537411755231115e-08	-1.885531626737602e-10
0.01	-0.03683564518313845	0.05660360569719412	0.9203081551898709	0.3089136323042851	-0.2956725014917476	-0.3014705314886788	-0.3882713474696451	0.2503041972633592	0.2503041972633446	-0.1744785959857131	-0.1745315450252599	-0.0007234509501076648	0.0004304705163943338	-0.002609550224653516	-0.01468086676882582	-0.006662816581377454	0.06616805829042749	-0.006386512487703952	0.02691522596263071	-0.06393219213999581	0.07501167863203899	0.07501167863202825	0.01082978136018306	-2.837471275801947e-05	0.01602553394327142	-0.001407539111347132	0.05154055549952528	-0.03943893050690637	-0.0193531485815739	-0.2392287626228421	0.2012339943669008	-0.01454744717865768	0.0263796553625056	20.49101072026031	0.1812922010063446	2.428174045271807	-1.199236856749821	-639.4742939581151	-72.57359599374404	-23.20126813705007	-0.2272153837494665	-1.43929037361118	-0.653535564009406	6.46551306868897	-0.6317897939201244	2.682163974769709	-6.320677353433217	7.368982631873352	7.368982631871674	1.04925136514782	0.03256004457949009	1.582435653019087	-0.14056908691949	-1.907491167289207e-08	1.066296171329419e-07	8.257786699978293e-08	1.734743517162058e-08	-1.559570576629621e-08	-2.976670719089755e-08	2.91287696514207e-10
0.02	-0.03687403246498707	0.05638566746211564	0.9202088482875321	0.309898157745204	-0.2957673889506257	-0.3010691471364664	-0.3892221018271442	0.2514219692347195	0.2514219692347111	-0.1743169369149316	-0.1745314434854962	-0.0004834460315261991	0.0004101891353632497	-0.005037632397828276	-0.02881578726072373	-0.01317322088987804	0.1304172412492014	-0.01255441116431845	0.05326791286893789	-0.1258895383788488	0.1482465870020868	0.1482465870020682	0.02147038183208947	6.972113069551622e-05	0.03196031226425975	-0.002615328267708163	0.04797731810912664	-0.06064679204950391	-0.01871340796661735	-0.2367484554851114	0.191669728973554	0.008049341256214039	0.02988124230453814	18.25766727587319	-9.058475438245882	3.692243965276008	-1.693395261885701	-640.548267876906	-91.76661170323416	-23.21399235300812	-0.2830672870215687	-1.389192714173149	-0.6536707781854366	6.439672516842757	-0.5977207056941998	2.569605075167654	-6.044591459848848	7.321345760366304	7.321345760366459	1.103136455687793	-0.04201486393291158	1.620099971371731	-0.09118607081940155	-3.292844890134427e-08	1.393884513612469e-07	1.149597268515368e-07	3.614302798892259e-08	-7.547838117082617e-08	-4.415929682948395e-08	7.711285557021741e-10
0.03	-0.03693622717020341	0.05602940354614484	0.9200450694404169	0.3115153027959772	-0.2959230660648579	-0.3004078253854481	-0.3907811616136942	0.253262680639365	0.2532626806393143	-0.1740505635929805	-0.1745303621576414	-8.464199608530134e-05	0.0003785877897235887	-0.007397794717753025	-0.04231636045310742	-0.01956729071969222	0.1926388046337523	-0.01857204872874645	0.07885634760794263	-0.1854723853789101	0.2195366642154714	0.219536664215438	0.0316789296370836	0.0001334178255242493	0.04777374201387787	-0.003704189664897619	0.04344551359286566	-0.04986356212186371	-0.01838352687441084	-0.2342370407731094	0.1928664468841299	1.68627755207196e-05	0.03435508186259734	18.27850871387238	-5.66579542874736	3.256645341868976	-2.378366574264232	-642.1798985293478	-83.97477937754124	-23.23461722940911	-0.2119674388398325	-1.312386996548828	-0.6300017510348109	6.057447755196157	-0.6024779011245224	2.532438427999819	-5.847626286667578	6.97898408965406	6.978984089651572	0.9609465199126839	0.02860816008637915	1.557953261077086	-0.1176587243966526	-5.466544174473705e-08	8.13777072964068e-08	1.878016409959419e-07	4.675111225739921e-08	-1.48257404268715e-07	-1.05417830598334e-07	-1.371051924406361e-08
0.04	-0.03702191884549676	0.05554175442329329	0.9198178045618723	0.3137434733817813	-0.2961386580786034	-0.2994948241361001	-0.3929225488635672	0.2558055218936796	0.2558055218936746	-0.1736858582776304	-0.1745290346181265	0.0004714940937149403	0.0003361133200663512	-0.009737026412162017	-0.05509282863687229	-0.02587042717569178	0.2526223482556606	-0.02453739106552009	0.1036038125362675	-0.242355031042237	0.2886725569420417	0.288672556941992	0.04113678052240295	0.0001189634761805652	0.06342672313630129	-0.004789953071198412	0.03891370907672022	-0.03908033219407114	-0.01805364578197161	-0.2317256260610186	0.1940631647948035	-0.008015615704986033	0.03882892142063315	18.35518191991473	-2.278479731064352	2.816863090007203	-3.17414112757689	-643.0041700502464	-76.10415025830741	-23.26256712356837	-0.2788811619180129	-1.244371712449877	-0.6354841034225288	5.992068564314438	-0.5872616601632851	2.401411113031557	-5.504551192501784	6.890508863003574	6.890508863003392	0.9529970717529506	-0.05764507276752823	1.588010245932239	-0.09056647264182298	-7.656498006472656e-08	2.14954255348008e-08	2.614777830639069e-07	5.71903819166217e-08	-2.213023314427555e-07	-1.676426724935812e-07	-2.850065134607587e-08
0.05	-0.0371306727126516	0.05492975636653521	0.9195278810159939	0.3165606965304424	-0.2964130524507629	-0.2983389582649938	-0.3956192415352413	0.2590293127015768	0.2590293127015237	-0.1732291311967302	-0.1745284598436568	0.001183390359087701	0.0002834167345219975	-0.01196979683394804	-0.06720630753932831	-0.03210355692163391	0.3104629566843891	-0.03027006034746587	0.1274441767441103	-0.2965512069265483	0.355743302525756	0.3557433025257342	0.05020046417355073	2.258197424011273e-05	0.07892721805492106	-0.005684157042725423	0.03239274473617039	-0.03921025713608801	-0.01716108232520425	-0.2264351381958555	0.1868093653828765	-0.003608236640985594	0.0445812783089904	16.16455154849309	-3.825201686220336	3.081912176246997	-2.830300203353865	-644.12815374245	-78.54106397863889	-23.29712322296909	-0.1888853116166455	-1.179753181807265	-0.6156634992139396	5.626150465224729	-0.5555940050757976	2.356531575073177	-5.312306331050017	6.564017909541145	6.564017909545275	0.8818580946612732	0.01839898763090245	1.52726998947029	-0.07909942598508482	-8.450291448147198e-08	1.779818948460595e-08	2.726979000850503e-07	6.8977765563112e-08	-2.680885969178966e-07	-1.753901656630439e-07	-2.918877249509803e-08
0.06	-0.03726043634988761	0.05419964008021857	0.9191759389548504	0.319945544460027	-0.2967426384043212	-0.2969484522517323	-0.3988449270746844	0.2629135430659872	0.2629135430659724	-0.1726820064627744	-0.1745280421489143	0.002049531748574877	0.000223727695947114	-0.01393898042805472	-0.07871647454858556	-0.03827413022871607	0.3661473044359998	-0.03557570734404854	0.1505318409684585	-0.3481536045969837	0.4207604682489105	0.4207604682489193	0.05921631113932736	8.75475338315516e-05	0.09427574795927428	-0.006188443677331714	0.02587178039586801	-0.03934018207807057	-0.01626851886817448	-0.2211446503305395	0.1795555659710283	0.0007991424230741396	0.05033363519746364	14.02396596175433	-5.380127769080086	3.347631743037986	-2.595698928211488	-644.524567440296	-80.91488390288004	-23.3373842643365	-0.2261637963817499	-1.123709333810628	-0.6229728156505528	5.560816428891063	-0.501857203090607	2.250871116332565	-4.985795549726464	6.479792890891706	6.479792890892083	0.9434297346788403	-0.02537566046124048	1.557617243078363	-0.01258300525782863	-9.185299189176501e-08	1.646663956962844e-08	2.812882897358011e-07	8.082191190380304e-08	-3.137692345320312e-07	-1.80843875728263e-07	-2.928312476188903e-08
0.07000000000000001	-0.03740900521534261	0.05335724309109671	0.9187624123672158	0.323877257330768	-0.2971235746442834	-0.2953313370517811	-0.4025741786320386	0.2674380252900194	0.267438025290017	-0.1720458047174989	-0.1745269503613863	0.003068039130339226	0.0001603797571106367	-0.01575276912892472	-0.08968071952227108	-0.04443542796038299	0.419871694500924	-0.04058696852955958	0.1727444364015052	-0.3973375294834425	0.4837944671209437	0.4837944671210204	0.06791158116016013	0.000114749822399301	0.1093532591794119	-0.006480814344056741	0.02010771505038209	-0.03669827005100312	-0.01552413293998854	-0.2170834005078514	0.1743001674093915	0.001865146772495774	0.05536567443914862	12.38961729852659	-5.588489427105682	3.416897688560964	-2.206414790576158	-644.8150367407635	-80.52377914640701	-23.38232334398636	-0.1556832627642278	-1.070435209590034	-0.6134076588640541	5.229706648179205	-0.4971127171256329	2.184396589466681	-4.830814348969988	6.163982827385729	6.163982827395556	0.8157374226747227	0.01440760668082081	1.471944295325854	-0.03754906760261718	-1.0222948602307e-07	-6.147152290974889e-08	3.197166609242672e-07	8.068058777287448e-08	-3.520945696486014e-07	-2.228658542593611e-07	-4.1549065695419e-08
0.08	-0.03757505133897784	0.05240767302614831	0.9182871329208776	0.3283365053727283	-0.2975538939242811	-0.2934965073309621	-0.4067844941164328	0.2725826033912102	0.2725826033912011	-0.1713260179146574	-0.1745260586642687	0.004235146871073086	9.411111756253528e-05	-0.01743443206279277	-0.1001510897138921	-0.05062470196942389	0.4716543386812647	-0.04545231534887594	0.1940747451416035	-0.444366390004435	0.5447796436740483	0.5447796436741911	0.07593332265657757	4.752943756726111e-05	0.1239958197533204	-0.006772583819690105	0.01434364970497063	-0.03405635802382917	-0.01477974701213165	-0.213022150685033	0.1690447688478304	0.002931151122057778	0.06039771368081093	10.80074661732941	-5.802905786698708	3.484949514470191	-1.920176765730627	-644.4508243350608	-80.07333168432154	-23.43094564981143	-0.1997386429809957	-1.024934377398222	-0.6285680711253699	5.172467251974581	-0.472674329851619	2.074413777742866	-4.554782676633065	6.070028427106059	6.070028427106084	0.808724029795898	-0.04426019514121356	1.47062711383196	-0.01246276703963761	-1.128012328460532e-07	-1.443520474900552e-07	3.600700631796826e-07	7.976600748248659e-08	-3.899453691201674e-07	-2.6724707591729e-07	-5.460027041389986e-08
0.09	-0.0377573089132226	0.05135597506864513	0.9177497930326218	0.3333040825938372	-0.298031716360005	-0.291453030419798	-0.411453690368294	0.2783270481245161	0.2783270481245763	-0.1705284877218253	-0.1745264264310266	0.005546849070697399	2.54824246394295e-05	-0.01898210831610153	-0.1100949927233027	-0.05684688458620102	0.52152535489972	-0.0500446584110476	0.214497316731302	-0.4890703649282693	0.6037679532858451	0.6037679532857646	0.08353895720105667	-9.285587657664048e-05	0.1383006097536476	-0.006898878226829235	0.00753425969224689	-0.03029718960064549	-0.01393093668151708	-0.208380582286527	0.1631611328003088	0.003605607856336831	0.06634489114015932	8.955378795709146	-5.81196965726778	3.531236250631454	-1.518568037458397	-644.7645198247147	-79.09887059888977	-23.48216923277986	-0.1270344204664766	-0.9650759661753804	-0.6196632934872861	4.844049504135341	-0.4424108359605549	2.007616867678963	-4.367830583769858	5.762040903347287	5.762040903313719	0.7314289815098632	0.005374526600568705	1.403796065216748	-0.004588711966197865	-1.169936967990479e-07	-1.693797560018444e-07	3.699128528068751e-07	8.281794276303774e-08	-4.107664134300465e-07	-2.777028380608589e-07	-5.779557317938113e-08
